<?xml version="1.0" encoding="utf-8"?>
<!-- Generator: Adobe Illustrator 23.1.0, SVG Export Plug-In . SVG Version: 6.00 Build 0)  -->
<svg version="1.1" id="_x31_" xmlns="http://www.w3.org/2000/svg" xmlns:xlink="http://www.w3.org/1999/xlink" x="0px" y="0px"
	 viewBox="0 0 32 32" style="enable-background:new 0 0 32 32;" xml:space="preserve">
<g id="wps">
	<path d="M22.62,26.53c-0.46,0.99-1.63,1.42-2.61,0.96c0,0,0,0,0,0c-0.41-0.19-0.74-0.52-0.94-0.93l-2.81-6.34
		c-0.02-0.05-0.02-0.11,0-0.16l1.9-3.93c0.07-0.15,0.28-0.14,0.35,0l2.17,4.63c0.07,0.15,0.28,0.15,0.35,0l5.79-12.21
		c0.06-0.13-0.03-0.27-0.17-0.27h-4.5c-0.07,0-0.14,0.04-0.17,0.1l-3.75,7.13l0,0l-0.44,0.82c0,0,0,0.01,0,0.01L16,20.1l0,0
		l-3.04,6.48c-0.47,0.98-1.65,1.4-2.63,0.93c-0.41-0.19-0.73-0.52-0.93-0.93L0.19,7.13c-0.46-0.98-0.04-2.15,0.94-2.62
		c0.26-0.12,0.54-0.18,0.82-0.18h9.19c0.73-0.01,1.4,0.39,1.74,1.04l2.87,5.49c0.03,0.06,0.03,0.12,0,0.18l-1.98,3.79
		c-0.07,0.14-0.27,0.14-0.34,0l-3.37-6.42c-0.03-0.06-0.1-0.1-0.17-0.1L5.35,8.26c-0.14,0-0.24,0.15-0.18,0.27l5.81,12.21
		c0.07,0.15,0.28,0.15,0.35,0l0.45-0.93l0,0l2.46-5.21l3.05-5.74l0,0l1.83-3.52c0.34-0.65,1.01-1.05,1.74-1.04h9.17
		c1.08,0,1.96,0.88,1.96,1.96c0,0,0,0.01,0,0.01c0,0.28-0.07,0.56-0.19,0.82L22.62,26.53z"/>
</g>
</svg>
