<?xml version="1.0" encoding="utf-8"?>
<!-- Generator: Adobe Illustrator 23.1.0, SVG Export Plug-In . SVG Version: 6.00 Build 0)  -->
<svg version="1.1" id="_x31_" xmlns="http://www.w3.org/2000/svg" xmlns:xlink="http://www.w3.org/1999/xlink" x="0px" y="0px"
	 viewBox="0 0 32 32" style="enable-background:new 0 0 32 32;" xml:space="preserve">
<g id="腾讯微云">
	<path d="M30.32,14.38c-0.86-1.14-2.02-2.05-3.33-2.61c-0.56-1.49-1.42-2.85-2.54-4.01c-2.15-2.22-5-3.44-8.05-3.44
		c-2.49,0-4.83,0.76-6.78,2.19C7.95,7.73,6.68,9.37,5.9,11.28C2.49,12.32,0,15.49,0,19.23c0,2.19,0.98,4.37,2.69,5.98
		c1.66,1.57,3.87,2.47,6.05,2.47H23.7v0c4.58,0,8.3-3.72,8.3-8.3C32,17.56,31.42,15.83,30.32,14.38z M3.58,19.23
		c0-2.6,2.12-4.72,4.72-4.72c0.91,0,1.78,0.26,2.54,0.74c0.27,0.22,0.46,0.53,0.54,0.88c0.08,0.4,0.01,0.81-0.22,1.15
		c-0.22,0.34-0.57,0.57-0.97,0.66c-0.3,0.06-0.61,0.03-0.88-0.08l-1.36,3.31c0.62,0.25,1.27,0.38,1.93,0.38
		c0.35,0,0.7-0.04,1.04-0.11c1.33-0.28,2.48-1.06,3.23-2.2c0.75-1.14,1.01-2.5,0.73-3.84c-0.26-1.24-0.94-2.31-1.93-3.05l0,0
		c-0.01-0.01-0.02-0.01-0.03-0.02c-0.24-0.18-0.5-0.34-0.78-0.47l0,0.01c-0.66-0.35-1.37-0.6-2.1-0.75c1.4-2.01,3.71-3.22,6.36-3.22
		c4.29,0,7.78,3.63,7.78,8.08s-3.49,8.08-7.78,8.08v0.04H8.73C6.03,24.1,3.58,21.78,3.58,19.23z M24.62,24.01
		c1.81-1.95,2.89-4.44,3.09-7.1c0.45,0.73,0.71,1.58,0.71,2.47C28.42,21.67,26.79,23.58,24.62,24.01z"/>
</g>
</svg>
