<?xml version="1.0" encoding="utf-8"?>
<!-- Generator: Adobe Illustrator 23.1.0, SVG Export Plug-In . SVG Version: 6.00 Build 0)  -->
<svg version="1.1" id="_x31_" xmlns="http://www.w3.org/2000/svg" xmlns:xlink="http://www.w3.org/1999/xlink" x="0px" y="0px"
	 width="32px" height="32px" viewBox="0 0 32 32" style="enable-background:new 0 0 32 32;" xml:space="preserve">
<path d="M32,16.3c0-8.8-7.2-16-16-16c-8.8,0-16,7.2-16,16c0,2.2,1,3.2,2.6,4.1c1.6,0.9,4.5,0.8,6.6,2.6s2.2,4.8,2.6,6.2
	c0.6,1.8,2.4,3.1,4.3,3.1C24.8,32.3,32,25.1,32,16.3C32,16.3,32,16.3,32,16.3z M22.3,17.7c-0.9,1-1.9,1.8-3,2.5
	c-1.3,0.8-2.7,1.3-4.1,1.7l-0.2,0c-1.4,0.3-2.9-0.6-3.2-2c-0.3-1.4-0.5-2.9-0.5-4.3c0-1.4,0.2-2.7,0.7-4c0.5-1.1,1.6-1.8,2.8-1.6
	c1.3,0.2,2.6,0.7,3.7,1.4c1.2,0.7,2.4,1.6,3.5,2.5l0.1,0.1C23.3,14.9,23.3,16.6,22.3,17.7z"/>
</svg>
