<?xml version="1.0" encoding="utf-8"?>
<!-- Generator: Adobe Illustrator 23.1.0, SVG Export Plug-In . SVG Version: 6.00 Build 0)  -->
<svg version="1.1" id="_x31_" xmlns="http://www.w3.org/2000/svg" xmlns:xlink="http://www.w3.org/1999/xlink" x="0px" y="0px"
	 viewBox="0 0 32 32" style="enable-background:new 0 0 32 32;" xml:space="preserve">
<g id="优酷">
	<path d="M30.18,15.21c-0.12-2.17-1.09-4.1-2.57-5.42c-0.27-0.3-0.58-0.56-0.94-0.76L11.92,0.51C9.76-0.73,6.79,0.37,5.28,2.99
		C3.77,5.6,4.3,8.73,6.45,9.98l14.75,8.51c0.08,0.05,0.17,0.09,0.26,0.13l4.41,2.55l-9.94-4.59l-9.42,5.44
		c-2.16,1.25-2.69,4.38-1.18,6.99c1.51,2.61,4.48,3.72,6.64,2.47l14.75-8.51c0.36-0.21,0.67-0.47,0.94-0.76
		c1.59-1.42,2.6-3.53,2.6-5.89C30.26,15.94,30.23,15.57,30.18,15.21z"/>
</g>
</svg>
