<?xml version="1.0" encoding="utf-8"?>
<!-- Generator: Adobe Illustrator 23.1.0, SVG Export Plug-In . SVG Version: 6.00 Build 0)  -->
<svg version="1.1" id="_x31_" xmlns="http://www.w3.org/2000/svg" xmlns:xlink="http://www.w3.org/1999/xlink" x="0px" y="0px"
	 width="32px" height="32px" viewBox="0 0 32 32" style="enable-background:new 0 0 32 32;" xml:space="preserve">
<path d="M11.3,21.1l5.9-4.5c0.5-0.4,0.6-1,0.2-1.5c-0.1-0.1-0.1-0.1-0.2-0.2l-5.9-4.5c-0.7-0.5-1.7,0-1.7,0.8v9
	C9.5,21.1,10.6,21.6,11.3,21.1z M5.4,9.9c0.1-2.4,0.3-4,0.6-5.1C5.7,4.8,5.5,4.7,5.3,4.7C4.3,4.5,3.5,4.8,2.8,5.2
	C2.1,5.5,1.4,6,0.9,7.4s-0.6,3.8-0.7,5.8s-0.1,3.7,0,5.7s0.2,4.4,0.7,5.8c0.4,1.4,1.1,1.9,1.8,2.2c0.7,0.4,1.5,0.6,2.5,0.5
	c0.2,0,0.4-0.1,0.6-0.1c-0.2-1.1-0.4-2.7-0.6-5.1C5.2,18.6,5.2,13.4,5.4,9.9z"/>
<path d="M30,12.4c-1.6-1.8-4.9-4.4-7.7-6.1s-5.2-2.6-7.3-3.4s-3.7-1.6-4.9-1.8S8.4,1.3,7.8,1.7C7.2,2.1,6.7,2.4,6.3,3.5
	C6.1,3.9,6,4.4,5.9,4.8c1,0.2,2.2,0.7,3.7,1.3c1.8,0.7,4,1.5,6.3,2.6c2.3,1.1,4.8,2.6,6.3,3.8c1.6,1.2,2.2,2,2.2,3.4
	s-0.7,2.3-2.2,3.4c-1.6,1.2-4,2.7-6.3,3.8s-4.5,1.9-6.3,2.6c-1.5,0.6-2.7,1.1-3.7,1.3c0.1,0.4,0.2,0.9,0.4,1.3
	c0.4,1.1,0.9,1.4,1.5,1.8s1.3,0.8,2.4,0.6s2.8-0.9,4.9-1.8c2-0.8,4.5-1.7,7.3-3.4c2.8-1.7,6-4.3,7.7-6.1c1.6-1.8,1.7-2.8,1.7-3.6
	C31.8,15.1,31.7,14.2,30,12.4z"/>
</svg>
