<?xml version="1.0" encoding="utf-8"?>
<!-- Generator: Adobe Illustrator 23.1.0, SVG Export Plug-In . SVG Version: 6.00 Build 0)  -->
<svg version="1.1" id="_x31_" xmlns="http://www.w3.org/2000/svg" xmlns:xlink="http://www.w3.org/1999/xlink" x="0px" y="0px"
	 viewBox="0 0 32 32" style="enable-background:new 0 0 32 32;" xml:space="preserve">
<g id="剪映">
	<path d="M31.99,22.01L26.4,18.8l-5.45-3.12l5.45-3.17l5.56-3.23l-0.01-4.52c0-0.64-0.69-1.03-1.24-0.71l-4.32,2.51
		c-0.18-1.79-1.7-3.2-3.53-3.2H3.55C1.6,3.35,0,4.95,0,6.9v4.02l8.18,4.75L0,20.36v4.73c0,1.95,1.6,3.55,3.55,3.55h19.29
		c1.95,0,3.55-1.6,3.55-3.55v-0.41l4.37,2.5c0.55,0.32,1.24-0.08,1.24-0.72L31.99,22.01z M3.59,7.93h19.69l-9.84,5.25L3.59,7.93z
		 M3.59,23.45l9.84-5.25l9.84,5.25H3.59z"/>
</g>
</svg>
