<?xml version="1.0" encoding="utf-8"?>
<!-- Generator: Adobe Illustrator 23.1.0, SVG Export Plug-In . SVG Version: 6.00 Build 0)  -->
<svg version="1.1" id="_x31_" xmlns="http://www.w3.org/2000/svg" xmlns:xlink="http://www.w3.org/1999/xlink" x="0px" y="0px"
	 viewBox="0 0 32 32" style="enable-background:new 0 0 32 32;" xml:space="preserve">
<g id="bbll">
	<g>
		<path d="M1.8,27.07c-0.19-0.05-0.32-0.13-0.38-0.25c-0.07-0.11-0.1-0.24-0.1-0.37c0-0.03,0-0.05,0.01-0.06
			c0-0.01,0.01-0.03,0.01-0.06c0.08-1.14,0.16-2.34,0.25-3.59c0.09-1.25,0.19-2.52,0.29-3.82c0.1-1.29,0.21-2.58,0.31-3.87
			c0.1-1.29,0.21-2.54,0.31-3.75H2.47c-0.04,0-0.14,0.03-0.32,0.1c-0.17,0.07-0.37,0.14-0.59,0.22c-0.22,0.08-0.45,0.15-0.67,0.21
			s-0.41,0.09-0.55,0.09c-0.12,0-0.21-0.05-0.26-0.16C0.03,11.67,0,11.55,0,11.42c0-0.09,0.01-0.18,0.04-0.27
			c0.25-0.82,0.52-1.59,0.79-2.31c0.27-0.72,0.55-1.46,0.82-2.22c0.72-0.43,1.46-0.81,2.23-1.13C4.66,5.17,5.44,4.9,6.23,4.69
			C7.02,4.47,7.8,4.31,8.59,4.19c0.78-0.11,1.54-0.17,2.28-0.17c1.03,0,2,0.12,2.91,0.36c0.91,0.24,1.7,0.61,2.38,1.1
			c0.67,0.49,1.21,1.11,1.6,1.85c0.39,0.74,0.59,1.62,0.59,2.62c0,0.43-0.08,0.85-0.25,1.25c-0.17,0.4-0.39,0.78-0.66,1.15
			c-0.27,0.36-0.57,0.7-0.9,1.01c-0.33,0.31-0.66,0.59-0.98,0.85c0.45,0.37,0.86,0.7,1.22,1.01c0.36,0.3,0.67,0.61,0.93,0.94
			s0.45,0.69,0.58,1.1c0.13,0.41,0.2,0.9,0.2,1.48c0,0.89-0.14,1.73-0.42,2.54c-0.28,0.81-0.66,1.56-1.15,2.25
			c-0.49,0.69-1.06,1.32-1.73,1.88c-0.66,0.56-1.39,1.04-2.16,1.43s-1.6,0.7-2.46,0.92c-0.86,0.22-1.73,0.32-2.61,0.32
			c-0.32,0-0.75-0.04-1.29-0.11c-0.54-0.07-1.1-0.16-1.69-0.26c-0.59-0.1-1.17-0.21-1.74-0.33C2.66,27.27,2.18,27.16,1.8,27.07z
			 M8.32,9.7c-0.18,1.25-0.33,2.51-0.45,3.79c-0.12,1.28-0.23,2.53-0.32,3.74c-0.09,1.21-0.17,2.36-0.23,3.44
			c-0.07,1.09-0.13,2.06-0.2,2.91c0.38,0,0.78-0.02,1.22-0.07c0.44-0.05,0.87-0.13,1.31-0.25c0.43-0.12,0.86-0.27,1.27-0.45
			c0.41-0.18,0.77-0.41,1.08-0.69c0.31-0.27,0.56-0.6,0.75-0.97c0.19-0.37,0.28-0.8,0.28-1.29c0-0.3-0.08-0.56-0.24-0.78
			c-0.16-0.23-0.37-0.42-0.62-0.59s-0.53-0.3-0.83-0.41c-0.3-0.11-0.6-0.2-0.88-0.27c-0.29-0.07-0.55-0.12-0.79-0.16
			c-0.24-0.04-0.42-0.07-0.54-0.09c-0.13-0.02-0.22-0.07-0.25-0.16c-0.04-0.08-0.06-0.19-0.06-0.32c0-0.14,0.08-0.34,0.23-0.62
			c0.15-0.27,0.36-0.65,0.62-1.12l0.59-1.06c0.25-0.11,0.53-0.24,0.83-0.4c0.3-0.16,0.57-0.34,0.83-0.55
			c0.25-0.21,0.47-0.44,0.64-0.7c0.17-0.26,0.25-0.54,0.25-0.85c0-0.87-0.17-1.53-0.5-1.99c-0.33-0.46-0.82-0.69-1.45-0.69
			C10.13,9.13,9.29,9.32,8.32,9.7z"/>
		<path d="M26.48,4.58c-0.01,0.25-0.03,0.57-0.06,0.94C26.4,5.9,26.37,6.3,26.34,6.71c-0.03,0.42-0.07,0.84-0.11,1.27
			c-0.04,0.43-0.08,0.82-0.11,1.18c-0.03,0.36-0.06,0.67-0.08,0.93c-0.02,0.26-0.03,0.43-0.03,0.5c-0.04,0.65-0.08,1.26-0.12,1.82
			c-0.04,0.56-0.09,1.11-0.13,1.66c-0.05,0.55-0.1,1.12-0.15,1.7c-0.05,0.59-0.11,1.23-0.16,1.94c-0.06,0.71-0.12,1.49-0.19,2.36
			c-0.07,0.87-0.14,1.86-0.22,2.98l5.86-0.66c0.26-0.03,0.48-0.05,0.65-0.05c0.21,0,0.34,0.04,0.39,0.11
			c0.05,0.07,0.08,0.19,0.08,0.35c0,0.02-0.01,0.05-0.01,0.09c-0.01,0.04-0.03,0.11-0.06,0.21c-0.03,0.11-0.08,0.26-0.14,0.46
			c-0.06,0.2-0.14,0.48-0.25,0.84l-0.31,1.05c-0.1,0.34-0.2,0.64-0.29,0.91c-0.09,0.27-0.2,0.5-0.33,0.7
			c-0.13,0.2-0.3,0.35-0.5,0.47c-0.2,0.12-0.45,0.19-0.76,0.22c-0.2,0.02-0.47,0.04-0.81,0.06c-0.34,0.02-0.73,0.03-1.17,0.05
			c-0.44,0.02-0.92,0.03-1.44,0.06c-0.51,0.02-1.04,0.05-1.58,0.08c-0.53,0.02-1.06,0.03-1.6,0.04c-0.54,0.01-1.05,0.01-1.53,0.02
			c-0.48,0.01-0.92,0.02-1.33,0.03s-0.74,0.02-1,0.03c-0.25,0-0.42-0.02-0.53-0.06c-0.11-0.04-0.16-0.11-0.16-0.21
			c0-0.12,0.03-0.28,0.1-0.5c0.07-0.22,0.15-0.46,0.25-0.73c0.1-0.27,0.22-0.55,0.35-0.84c0.13-0.29,0.25-0.57,0.37-0.85l0.38-5.65
			c0.08-0.96,0.15-1.94,0.23-2.93c0.08-0.99,0.14-1.95,0.2-2.88l0.24-4.2c0.06-0.99,0.09-1.71,0.11-2.16
			c0.02-0.45,0.03-0.69,0.03-0.74c0.02-0.19,0.03-0.35,0.04-0.48c0.01-0.13,0.03-0.23,0.05-0.32c0.02-0.08,0.06-0.15,0.11-0.19
			c0.05-0.04,0.12-0.07,0.21-0.09l4.96-1.31c0.1-0.04,0.23-0.06,0.38-0.06c0.1,0,0.18,0.03,0.22,0.1c0.04,0.07,0.06,0.2,0.06,0.39
			c0,0.02,0,0.05-0.01,0.09C26.49,4.52,26.48,4.55,26.48,4.58z"/>
	</g>
</g>
</svg>
